<?xml version="1.0" encoding="UTF-8"?>
<!DOCTYPE svg PUBLIC "-//W3C//DTD SVG 1.1//EN" "http://www.w3.org/Graphics/SVG/1.1/DTD/svg11.dtd">
<!-- Creator: CorelDRAW X7 -->
<svg xmlns="http://www.w3.org/2000/svg" xml:space="preserve" width="32.3798mm" height="6.1856mm" version="1.1" style="shape-rendering:geometricPrecision; text-rendering:geometricPrecision; image-rendering:optimizeQuality; fill-rule:evenodd; clip-rule:evenodd"
viewBox="0 0 1614 308"
 xmlns:xlink="http://www.w3.org/1999/xlink">
 <defs>
  <style type="text/css">
   <![CDATA[
    .fil1 {fill:#FEFEFE}
    .fil2 {fill:#E6E7E8}
    .fil3 {fill:#0668E3}
    .fil0 {fill:#FEFEFE;fill-rule:nonzero}
   ]]>
  </style>
 </defs>
 <g id="Layer_x0020_1">
  <metadata id="CorelCorpID_0Corel-Layer"/>
  <g id="_2057160727120">
   <polygon class="fil0" points="512,71 512,193 512,193 431,71 395,71 395,252 431,252 431,132 432,132 512,252 548,252 548,71 "/>
   <path id="1" class="fil0" d="M645 254c38,0 66,-26 66,-64 0,-38 -28,-64 -66,-64 -40,0 -67,27 -67,64 0,37 27,64 67,64zm0 -30c-19,0 -33,-15 -33,-34 0,-20 13,-35 33,-35 18,0 32,14 32,35 0,20 -14,34 -32,34z"/>
   <path id="2" class="fil0" d="M828 64l0 78 -1 0c-9,-11 -22,-16 -37,-16 -34,0 -59,26 -59,64 0,39 25,64 60,64 16,0 29,-6 38,-17l0 0 0 15 32 0 0 -188 -33 0zm-31 160c-19,0 -32,-13 -32,-34 0,-21 14,-35 32,-35 19,0 33,16 33,35 0,21 -15,34 -33,34z"/>
   <path id="3" class="fil0" d="M983 254c32,0 57,-15 72,-34l-26 -23c-11,13 -27,23 -46,23 -32,0 -55,-24 -55,-58 0,-36 24,-59 55,-59 19,0 35,10 46,23l26 -23c-20,-24 -47,-34 -72,-34 -59,0 -92,41 -92,93 0,60 42,92 92,92z"/>
   <path id="4" class="fil0" d="M1152 126c-15,0 -29,7 -38,20l0 0 0 -18 -34 0 0 124 34 0 0 -58c0,-18 11,-32 32,-32 1,0 5,0 8,0l0 -36c0,0 -1,0 -2,0l0 0z"/>
   <path id="5" class="fil0" d="M1289 189c0,-37 -24,-63 -61,-63 -35,0 -62,26 -62,64 0,39 28,64 64,64 25,0 43,-10 54,-23l-22 -20c-6,8 -16,14 -29,14 -16,0 -28,-10 -32,-24l87 0c1,-2 1,-8 1,-12zm-60 -34c15,0 24,9 27,22l-55 0c4,-15 15,-22 28,-22z"/>
   <path id="6" class="fil0" d="M1406 64l0 78 -1 0c-9,-11 -22,-16 -37,-16 -34,0 -59,26 -59,64 0,39 25,64 60,64 16,0 29,-6 38,-17l0 0 0 15 32 0 0 -188 -33 0zm-31 160c-19,0 -32,-13 -32,-34 0,-21 14,-35 32,-35 19,0 33,16 33,35 0,21 -15,34 -33,34z"/>
   <path id="7" class="fil0" d="M1491 110c12,0 21,-9 21,-20 0,-12 -9,-21 -21,-21 -11,0 -20,9 -20,21 0,11 9,20 20,20zm-16 142l33 0 0 -124 -33 0 0 124z"/>
   <path id="8" class="fil0" d="M1581 254c17,0 25,-3 33,-7l-8 -27c-6,3 -12,4 -16,4 -8,0 -11,-5 -11,-16l0 -53 34 0 0 -27 -34 0 0 -45 -33 4 0 41 -15 0 0 27 15 0 0 58c0,28 14,41 35,41z"/>
   <path class="fil1" d="M308 154c0,85 -69,154 -154,154 -85,0 -154,-69 -154,-154 0,-85 69,-154 154,-154 85,0 154,69 154,154z"/>
   <path class="fil2" d="M115 224l79 79c66,-17 114,-77 114,-149l0 -4 -62 -58 -131 132z"/>
   <path class="fil3" d="M212 81c7,-7 19,-7 25,0l14 14c7,7 7,19 0,26l-91 91c0,0 -1,1 -2,2l-14 14c-7,7 -18,7 -25,0l-62 -62c-7,-7 -7,-19 0,-25l14 -15c7,-6 19,-6 25,0l35 36 81 -81z"/>
  </g>
 </g>
</svg>
