<?xml version="1.0" encoding="UTF-8"?>
<!DOCTYPE svg PUBLIC "-//W3C//DTD SVG 1.1//EN" "http://www.w3.org/Graphics/SVG/1.1/DTD/svg11.dtd">
<!-- Creator: CorelDRAW X7 -->
<svg xmlns="http://www.w3.org/2000/svg" xml:space="preserve" width="32.3798mm" height="6.1856mm" version="1.1" style="shape-rendering:geometricPrecision; text-rendering:geometricPrecision; image-rendering:optimizeQuality; fill-rule:evenodd; clip-rule:evenodd"
viewBox="0 0 3238 619"
 xmlns:xlink="http://www.w3.org/1999/xlink">
 <defs>
  <style type="text/css">
   <![CDATA[
    .fil1 {fill:#0668E3}
    .fil2 {fill:#1455A7}
    .fil3 {fill:white}
    .fil0 {fill:#FEFEFE;fill-rule:nonzero}
   ]]>
  </style>
 </defs>
 <g id="Layer_x0020_1">
  <metadata id="CorelCorpID_0Corel-Layer"/>
  <polygon class="fil0" points="1028,142 1028,388 1027,388 865,142 793,142 793,506 865,506 865,265 866,265 1026,506 1100,506 1100,142 "/>
  <path id="1" class="fil0" d="M1293 510c78,0 133,-52 133,-129 0,-77 -55,-129 -133,-129 -80,0 -133,54 -133,129 0,75 53,129 133,129zm0 -60c-38,0 -65,-30 -65,-69 0,-40 26,-69 65,-69 37,0 65,28 65,69 0,40 -29,69 -65,69z"/>
  <path id="2" class="fil0" d="M1660 129l0 155 -1 0c-19,-21 -45,-32 -76,-32 -67,0 -117,54 -117,129 0,78 50,129 120,129 33,0 59,-12 76,-34l1 0 0 30 64 0 0 -377 -67 0zm-62 321c-38,0 -64,-28 -64,-68 0,-43 28,-70 64,-70 38,0 66,30 66,70 0,41 -29,68 -66,68z"/>
  <path id="3" class="fil0" d="M1972 509c64,0 113,-29 144,-68l-52 -46c-22,27 -55,46 -92,46 -65,0 -111,-48 -111,-116 0,-73 48,-119 111,-119 37,0 70,21 92,46l52 -45c-40,-48 -94,-69 -144,-69 -119,0 -186,83 -186,187 0,120 86,184 186,184z"/>
  <path id="4" class="fil0" d="M2310 252c-30,0 -57,14 -76,41l0 0 0 -37 -67 0 0 250 67 0 0 -116c0,-37 22,-65 64,-65 3,0 10,0 17,0l0 -73c-1,0 -3,0 -5,0l0 0z"/>
  <path id="5" class="fil0" d="M2585 378c0,-73 -49,-126 -122,-126 -71,0 -124,53 -124,128 0,79 55,130 129,130 50,0 86,-20 108,-47l-44 -41c-14,17 -33,29 -60,29 -32,0 -56,-19 -64,-49l176 0c1,-4 1,-15 1,-24zm-120 -67c29,0 47,17 54,43l-110 0c7,-28 29,-43 56,-43z"/>
  <path id="6" class="fil0" d="M2820 129l0 155 -2 0c-18,-21 -44,-32 -75,-32 -67,0 -118,54 -118,129 0,78 51,129 120,129 33,0 59,-12 77,-34l1 0 0 30 64 0 0 -377 -67 0zm-63 321c-37,0 -64,-28 -64,-68 0,-43 28,-70 64,-70 39,0 66,30 66,70 0,41 -29,68 -66,68z"/>
  <path id="7" class="fil0" d="M2991 221c23,0 42,-19 42,-41 0,-23 -19,-41 -42,-41 -22,0 -41,18 -41,41 0,22 19,41 41,41zm-34 285l68 0 0 -250 -68 0 0 250z"/>
  <path id="8" class="fil0" d="M3171 510c34,0 51,-7 67,-15l-17 -54c-12,5 -24,9 -32,9 -16,0 -22,-11 -22,-32l0 -107 68 0 0 -55 -68 0 0 -89 -67 7 0 82 -29 0 0 55 29 0 0 116c0,56 28,83 71,83z"/>
  <path class="fil1" d="M619 309c0,171 -139,310 -310,310 -171,0 -309,-139 -309,-310 0,-171 138,-309 309,-309 171,0 310,138 310,309z"/>
  <path class="fil2" d="M230 449l159 159c132,-35 230,-155 230,-299l0 -8 -125 -116 -264 264z"/>
  <path class="fil3" d="M425 163c14,-14 37,-14 51,0l28 28c14,14 14,37 0,51l-183 182c-1,2 -2,4 -4,5l-28 29c-14,13 -37,13 -51,0l-124 -125c-14,-14 -14,-37 0,-51l28 -28c14,-14 38,-14 51,0l70 70 162 -161z"/>
 </g>
</svg>
