<?xml version="1.0" encoding="UTF-8"?>
<!DOCTYPE svg PUBLIC "-//W3C//DTD SVG 1.1//EN" "http://www.w3.org/Graphics/SVG/1.1/DTD/svg11.dtd">
<!-- Creator: CorelDRAW X7 -->
<svg xmlns="http://www.w3.org/2000/svg" xml:space="preserve" width="6.1856mm" height="6.1856mm" version="1.1" style="shape-rendering:geometricPrecision; text-rendering:geometricPrecision; image-rendering:optimizeQuality; fill-rule:evenodd; clip-rule:evenodd"
viewBox="0 0 118 118"
 xmlns:xlink="http://www.w3.org/1999/xlink">
 <defs>
  <style type="text/css">
   <![CDATA[
    .fil0 {fill:#0668E3}
    .fil1 {fill:#1455A7}
    .fil2 {fill:white}
   ]]>
  </style>
 </defs>
 <g id="Layer_x0020_1">
  <metadata id="CorelCorpID_0Corel-Layer"/>
  <path class="fil0" d="M118 59c0,33 -26,59 -59,59 -33,0 -59,-26 -59,-59 0,-33 26,-59 59,-59 33,0 59,26 59,59z"/>
  <path class="fil1" d="M44 86l30 30c26,-7 44,-30 44,-57l0 -2 -24 -22 -50 51z"/>
  <path class="fil2" d="M81 31c3,-2 7,-2 10,0l5 6c3,2 3,7 0,9l-35 35c0,0 0,1 0,1l-6 5c-2,3 -7,3 -10,0l-23 -23c-3,-3 -3,-8 0,-10l5 -6c3,-2 7,-2 10,0l13 14 31 -31z"/>
 </g>
</svg>
